Coordinates
version=1
nRows=8
nColumns=40
inDegrees=yes

Units are S.I. units (second, meters, Newtons, ...)
Angles are in degrees.

endheader
time	pelvis_tilt	pelvis_list	pelvis_rotation	pelvis_tx	pelvis_ty	pelvis_tz	hip_flexion_r	hip_adduction_r	hip_rotation_r	knee_angle_r	knee_angle_r_beta	ankle_angle_r	subtalar_angle_r	mtp_angle_r	hip_flexion_l	hip_adduction_l	hip_rotation_l	knee_angle_l	knee_angle_l_beta	ankle_angle_l	subtalar_angle_l	mtp_angle_l	lumbar_extension	lumbar_bending	lumbar_rotation	arm_flex_r	arm_add_r	arm_rot_r	elbow_flex_r	pro_sup_r	wrist_flex_r	wrist_dev_r	arm_flex_l	arm_add_l	arm_rot_l	elbow_flex_l	pro_sup_l	wrist_flex_l	wrist_dev_l
      6.72414286	     -3.99876431	     -2.83182798	      0.14166816	      0.89589265	      0.93375104	      0.44991812	     34.76230159	     -5.03409267	     -6.61259962	     64.40420507	     64.40420507	      1.03620124	    -16.53855881	      2.73320895	     11.11626726	     -3.18447978	     -9.78714348	     17.68291835	     17.68291835	     12.45760707	    -13.64962208	     -1.97689165	     -9.46743334	      4.93234458	      3.11874870	      2.63387835	    -11.99347500	     -8.97648476	     27.18038383	     46.55031749	      0.00000000	      0.00000000	     18.66770668	    -11.57197649	     -0.94820875	     60.66444492	     46.03174331	      0.00000000	      0.00000000
      6.73578571	     -3.96243188	     -3.01100496	     -0.12131066	      0.89537215	      0.93408687	      0.44985783	     35.11804763	     -4.73487309	     -6.79151638	     62.07757092	     62.07757092	      1.12540339	    -16.35186394	      2.86686924	     10.23443616	     -3.33406724	     -9.99944626	     17.02439856	     17.02439856	     12.67444051	    -13.36465579	     -2.06188689	     -9.82613104	      5.28861094	      3.92896977	      1.25838527	    -12.45090532	     -9.40637826	     25.52939081	     46.64805061	      0.00000000	      0.00000000	     19.15957667	    -11.10940930	     -1.29178556	     63.45070839	     46.12250379	      0.00000000	      0.00000000
      6.74742857	     -4.11438190	     -3.08815795	     -0.33938030	      0.89482239	      0.93390375	      0.44985847	     35.54550404	     -4.57574061	     -7.07206252	     59.47008202	     59.47008202	      1.23156007	    -16.15146664	      2.69614809	      9.71196360	     -3.40828610	    -10.28593598	     16.63537845	     16.63537845	     12.81749688	    -13.15575828	     -2.42163633	     -9.91715742	      5.50977867	      3.45219614	      0.82718950	    -12.56109346	    -10.45790221	     23.88321515	     46.81360617	      0.00000000	      0.00000000	     18.63982506	    -11.65623039	     -1.93773828	     67.02298122	     46.27105997	      0.00000000	      0.00000000
      6.75907143	     -4.28857924	     -3.22304678	     -0.50431184	      0.89426459	      0.93364087	      0.44990294	     35.83642649	     -4.36096853	     -7.46153782	     56.54396793	     56.54396793	      1.47636498	    -15.79166664	      2.90168106	      9.25582157	     -3.52311837	    -10.36559114	     16.30887257	     16.30887257	     13.03940795	    -13.11374943	     -2.47349133	     -9.92333090	      5.84132266	      3.38175993	     -0.22049336	    -12.86762547	    -10.61519660	     23.28598962	     46.84592360	      0.00000000	      0.00000000	     19.16176002	    -11.83370490	     -2.19379035	     67.87891249	     46.31380241	      0.00000000	      0.00000000
      6.77071429	     -4.39084769	     -3.33340828	     -0.71796204	      0.89389218	      0.93346658	      0.45016244	     35.85753830	     -4.10209174	     -7.86992619	     53.25105097	     53.25105097	      1.70692632	    -15.27200773	      2.99391929	      8.65644644	     -3.63112078	    -10.57425285	     15.90185894	     15.90185894	     13.24955035	    -12.94698188	     -2.58307640	    -10.08459327	      6.03891888	      3.57480990	     -1.34986616	    -13.21623706	    -10.84204189	     22.62604537	     46.88794917	      0.00000000	      0.00000000	     19.50860054	    -11.73882606	     -2.45049976	     69.48304930	     46.37049640	      0.00000000	      0.00000000
      6.78235714	     -4.49231417	     -3.30823526	     -0.96675876	      0.89378655	      0.93312154	      0.45050395	     35.70504887	     -3.92140479	     -8.21357144	     49.65957275	     49.65957275	      1.78603639	    -14.60628316	      2.36883351	      8.01475819	     -3.61770578	    -10.98359852	     15.47628396	     15.47628396	     13.41928479	    -12.51955612	     -2.97999603	    -10.20275345	      6.11961925	      3.58560526	     -2.30976640	    -13.38798476	    -11.43247532	     22.10031226	     46.96275268	      0.00000000	      0.00000000	     19.23820532	    -11.96136619	     -3.00482005	     72.69105294	     46.49194632	      0.00000000	      0.00000000
      6.79400000	     -4.71196417	     -3.40012798	     -1.12767397	      0.89373159	      0.93256724	      0.45094864	     35.47550263	     -3.62594910	     -8.76672486	     45.77058209	     45.77058209	      2.05918417	    -13.65801916	      2.40015839	      7.58592852	     -3.72518398	    -11.14602625	     15.18084624	     15.18084624	     13.59851807	    -12.42101568	     -3.12473143	    -10.10835268	      6.35965011	      3.40737729	     -3.19741838	    -13.62625364	    -11.62407417	     21.75712050	     46.98939505	      0.00000000	      0.00000000	     19.34954523	    -12.15078682	     -3.25256767	     73.71646227	     46.53797440	      0.00000000	      0.00000000
      6.80564286	     -4.80153215	     -3.34893940	     -1.33166996	      0.89406778	      0.93197594	      0.45153322	     34.91878948	     -3.41823854	     -9.30101861	     41.64672910	     41.64672910	      2.19562643	    -12.29784113	      1.54766065	      6.89211720	     -3.69113858	    -11.57063908	     14.72466707	     14.72466707	     13.80110824	    -11.93812457	     -3.58380298	    -10.22335126	      6.38827682	      3.31619996	     -4.09432266	    -13.75163838	    -12.05852982	     21.63519425	     47.03068233	      0.00000000	      0.00000000	     19.00678178	    -12.34813068	     -3.78375097	     76.29432283	     46.64971413	      0.00000000	      0.00000000
